<svg width="456" height="205" viewBox="0 0 456 205" fill="none" xmlns="http://www.w3.org/2000/svg">
<path d="M7.29289 52.2923C7.68342 51.9018 8.31658 51.9018 8.70711 52.2923L15.0711 58.6562C15.4616 59.0468 15.4616 59.6799 15.0711 60.0705C14.6805 60.461 14.0474 60.461 13.6569 60.0705L8 54.4136L2.34315 60.0705C1.95262 60.461 1.31946 60.461 0.928932 60.0705C0.538408 59.6799 0.538408 59.0468 0.928932 58.6562L7.29289 52.2923ZM283.5 0.999344V1.99934V0.999344ZM9 52.9994C9 55.1932 9.01695 57.3421 9.05058 59.4469L7.05083 59.4789C7.01703 57.3631 7 55.2035 7 52.9994H9ZM9.45045 71.5498C9.67431 75.9016 9.98025 80.0348 10.3652 83.9567L8.37474 84.1521C7.98655 80.1968 7.67841 76.0327 7.45309 71.6526L9.45045 71.5498ZM11.8952 95.9995C12.5699 100.236 13.3569 104.169 14.2504 107.811L12.308 108.288C11.4 104.586 10.6025 100.599 9.92007 96.314L11.8952 95.9995ZM17.8023 119.394C19.391 123.575 21.1727 127.212 23.1292 130.345L21.4328 131.404C19.3975 128.145 17.5605 124.389 15.9327 120.105L17.8023 119.394ZM30.8628 139.497C34.012 142.168 37.4492 144.037 41.1456 145.197L40.5468 147.105C36.5945 145.865 32.9212 143.866 29.5691 141.023L30.8628 139.497ZM52.8996 146.643C56.6893 146.498 60.6803 145.843 64.8506 144.732L65.3655 146.664C61.0798 147.806 56.9402 148.49 52.9761 148.641L52.8996 146.643ZM76.3476 140.74C79.9226 139.239 83.592 137.48 87.3432 135.495L88.2786 137.263C84.4833 139.271 80.7598 141.056 77.1218 142.584L76.3476 140.74ZM97.9697 129.419C101.362 127.347 104.805 125.126 108.29 122.778L109.408 124.436C105.901 126.799 102.433 129.036 99.0124 131.126L97.9697 129.419ZM118.366 115.734C121.625 113.379 124.912 110.935 128.22 108.418L129.431 110.01C126.111 112.535 122.811 114.989 119.537 117.355L118.366 115.734ZM137.909 100.899C141.094 98.3823 144.292 95.8151 147.497 93.2117L148.758 94.7641C145.547 97.3722 142.342 99.9452 139.149 102.468L137.909 100.899ZM157.008 85.4052C160.161 82.7945 163.315 80.1629 166.464 77.524L167.749 79.0569C164.597 81.6975 161.44 84.3317 158.284 86.9456L157.008 85.4052ZM175.88 69.6102C179.03 66.958 182.17 64.3119 185.294 61.6868L186.581 63.2179C183.458 65.8422 180.319 68.4873 177.168 71.1401L175.88 69.6102ZM194.748 53.7753C197.942 51.1161 201.114 48.4938 204.257 45.9241L205.523 47.4724C202.386 50.0375 199.219 52.656 196.027 55.3124L194.748 53.7753ZM213.853 38.181C217.137 35.5708 220.381 33.0382 223.577 30.6023L224.79 32.193C221.606 34.6194 218.372 37.1435 215.097 39.7467L213.853 38.181ZM233.492 23.2618C236.962 20.7764 240.363 18.4373 243.683 16.2715L244.776 17.9467C241.483 20.0941 238.107 22.4164 234.657 24.8877L233.492 23.2618ZM254.267 9.82941C258.11 7.67738 261.821 5.82724 265.379 4.33168L266.154 6.17542C262.679 7.636 259.036 9.45081 255.244 11.5744L254.267 9.82941ZM277.254 0.61264C279.413 0.210541 281.497 -0.000656128 283.5 -0.000656128V1.99934C281.637 1.99934 279.676 2.19588 277.621 2.57881L277.254 0.61264ZM283.5 -0.000656128C285.534 -0.000656128 287.52 0.0899658 289.458 0.267654L289.276 2.25931C287.399 2.08731 285.475 1.99934 283.5 1.99934V-0.000656128ZM300.951 2.47208C304.766 3.61513 308.367 5.13519 311.772 6.99174L310.815 8.74767C307.528 6.95576 304.055 5.49005 300.377 4.38794L300.951 2.47208ZM321.47 13.5764C324.439 16.0208 327.233 18.7476 329.871 21.7172L328.375 23.0454C325.8 20.1454 323.08 17.4923 320.199 15.1204L321.47 13.5764ZM337.065 30.928C339.235 34.0639 341.288 37.376 343.238 40.8342L341.495 41.8163C339.572 38.4052 337.552 35.1458 335.421 32.066L337.065 30.928ZM348.582 51.1778C350.219 54.6224 351.779 58.1697 353.273 61.7961L351.424 62.558C349.941 58.96 348.395 55.4452 346.775 52.0363L348.582 51.1778ZM357.467 72.6139C358.786 76.2181 360.055 79.8751 361.282 83.5641L359.384 84.1955C358.162 80.5223 356.9 76.8842 355.589 73.3013L357.467 72.6139ZM364.817 94.6007C365.959 98.2916 367.07 101.995 368.159 105.69L366.241 106.255C365.153 102.566 364.045 98.872 362.906 95.1919L364.817 94.6007ZM371.391 116.806C372.469 120.548 373.533 124.26 374.594 127.924L372.673 128.48C371.611 124.814 370.546 121.098 369.469 117.359L371.391 116.806ZM377.858 139.019C378.991 142.789 380.131 146.476 381.289 150.058L379.386 150.673C378.222 147.075 377.079 143.374 375.943 139.595L377.858 139.019ZM385.021 160.979C386.383 164.725 387.783 168.3 389.237 171.67L387.401 172.462C385.928 169.05 384.514 165.437 383.141 161.663L385.021 160.979ZM394.235 181.955C396.221 185.54 398.313 188.733 400.54 191.475L398.988 192.736C396.67 189.883 394.514 186.586 392.485 182.925L394.235 181.955ZM408.77 199.021C411.932 201.015 415.353 202.224 419.103 202.534L418.938 204.527C414.846 204.189 411.119 202.866 407.703 200.713L408.77 199.021ZM430.161 201.079C433.321 200.065 436.695 198.53 440.308 196.418L441.317 198.144C437.603 200.317 434.095 201.917 430.772 202.983L430.161 201.079ZM449.717 189.999C451.227 188.833 452.772 187.58 454.353 186.237L455.647 187.761C454.044 189.123 452.475 190.396 450.939 191.582L449.717 189.999Z" fill="#286F6C"/>
</svg>
