{
  "accessors": [
    {
      "bufferView": 2,
      "componentType": 5126,
      "count": 4966,
      "max": [
        0.0751739963889122,
        0.0011277049779891968,
        0.17087750136852264
      ],
      "min": [
        -0.0751740038394928,
        -0.25044819712638855,
        -0.17090433835983276
      ],
      "type": "VEC3"
    },
    {
      "bufferView": 2,
      "byteOffset": 59592,
      "componentType": 5126,
      "count": 4966,
      "max": [
        1.0,
        1.0,
        1.0
      ],
      "min": [
        -1.0,
        -1.0,
        -1.0
      ],
      "type": "VEC3"
    },
    {
      "bufferView": 3,
      "componentType": 5126,
      "count": 4966,
      "max": [
        1.0,
        0.9999992251396179,
        0.9999828934669495,
        1.0
      ],
      "min": [
        -0.999996542930603,
        -0.9999995231628418,
        -1.0,
        -1.0
      ],
      "type": "VEC4"
    },
    {
      "bufferView": 1,
      "componentType": 5126,
      "count": 4966,
      "max": [
        0.9760634899139404,
        0.9955704212188721
      ],
      "min": [
        0.004429638385772705,
        0.004429638385772705
      ],
      "type": "VEC2"
    },
    {
      "bufferView": 1,
      "byteOffset": 39728,
      "componentType": 5126,
      "count": 4966,
      "max": [
        0.9760634899139404,
        0.9955704212188721
      ],
      "min": [
        0.004429638385772705,
        0.004429638385772705
      ],
      "type": "VEC2"
    },
    {
      "bufferView": 1,
      "byteOffset": 79456,
      "componentType": 5126,
      "count": 4966,
      "max": [
        0.9760634899139404,
        0.9955704212188721
      ],
      "min": [
        0.004429638385772705,
        0.004429638385772705
      ],
      "type": "VEC2"
    },
    {
      "bufferView": 0,
      "componentType": 5125,
      "count": 21390,
      "type": "SCALAR"
    },
    {
      "bufferView": 2,
      "byteOffset": 119184,
      "componentType": 5126,
      "count": 1824,
      "max": [
        0.02878056839108467,
        -0.15263964235782623,
        0.005759254097938538
      ],
      "min": [
        -0.032660942524671555,
        -0.21408115327358246,
        -0.09449193626642227
      ],
      "type": "VEC3"
    },
    {
      "bufferView": 2,
      "byteOffset": 141072,
      "componentType": 5126,
      "count": 1824,
      "max": [
        1.0,
        1.0,
        1.0
      ],
      "min": [
        -1.0,
        -1.0,
        -1.0
      ],
      "type": "VEC3"
    },
    {
      "bufferView": 3,
      "byteOffset": 79456,
      "componentType": 5126,
      "count": 1824,
      "max": [
        1.0,
        1.0,
        0.9998515248298645,
        1.0
      ],
      "min": [
        -1.0,
        -1.0,
        -1.0,
        1.0
      ],
      "type": "VEC4"
    },
    {
      "bufferView": 1,
      "byteOffset": 119184,
      "componentType": 5126,
      "count": 1824,
      "max": [
        0.9794443249702454,
        0.9952048659324646
      ],
      "min": [
        0.0047951340675354,
        0.0047951340675354
      ],
      "type": "VEC2"
    },
    {
      "bufferView": 1,
      "byteOffset": 133776,
      "componentType": 5126,
      "count": 1824,
      "max": [
        0.9794443249702454,
        0.9952048659324646
      ],
      "min": [
        0.0047951340675354,
        0.0047951340675354
      ],
      "type": "VEC2"
    },
    {
      "bufferView": 0,
      "byteOffset": 85560,
      "componentType": 5125,
      "count": 8088,
      "type": "SCALAR"
    }
  ],
  "asset": {
    "extras": {
      "author": "Prince Obrymec (https://sketchfab.com/prince-obrymec)",
      "license": "SKETCHFAB Standard (https://sketchfab.com/licenses)",
      "source": "https://sketchfab.com/3d-models/lamp-17-894d5a03a40847d88f7f7cae26004e6c",
      "title": "Lamp 17"
    },
    "generator": "Sketchfab-16.67.0",
    "version": "2.0"
  },
  "bufferViews": [
    {
      "buffer": 0,
      "byteLength": 117912,
      "name": "floatBufferViews",
      "target": 34963
    },
    {
      "buffer": 0,
      "byteLength": 148368,
      "byteOffset": 117912,
      "byteStride": 8,
      "name": "floatBufferViews",
      "target": 34962
    },
    {
      "buffer": 0,
      "byteLength": 162960,
      "byteOffset": 266280,
      "byteStride": 12,
      "name": "floatBufferViews",
      "target": 34962
    },
    {
      "buffer": 0,
      "byteLength": 108640,
      "byteOffset": 429240,
      "byteStride": 16,
      "name": "floatBufferViews",
      "target": 34962
    }
  ],
  "buffers": [
    {
      "byteLength": 537880,
      "uri": "scene.bin"
    }
  ],
  "extensionsUsed": [
    "KHR_materials_specular"
  ],
  "images": [
    {
      "uri": "textures/industrial_wall_sconce_baseColor.jpeg"
    },
    {
      "uri": "textures/industrial_wall_sconce_metallicRoughness.png"
    },
    {
      "uri": "textures/industrial_wall_sconce_normal.png"
    },
    {
      "uri": "textures/industrial_wall_sconce_bulb_metallicRoughness.png"
    },
    {
      "uri": "textures/industrial_wall_sconce_bulb_specularf0.png"
    }
  ],
  "materials": [
    {
      "doubleSided": true,
      "name": "industrial_wall_sconce",
      "normalTexture": {
        "index": 2
      },
      "occlusionTexture": {
        "index": 1
      },
      "pbrMetallicRoughness": {
        "baseColorTexture": {
          "index": 0
        },
        "metallicRoughnessTexture": {
          "index": 1
        }
      }
    },
    {
      "doubleSided": true,
      "extensions": {
        "KHR_materials_specular": {
          "specularColorFactor": [
            1.0,
            1.0,
            1.0
          ],
          "specularFactor": 1.0,
          "specularTexture": {
            "index": 4
          }
        }
      },
      "name": "industrial_wall_sconce_bulb",
      "normalTexture": {
        "index": 2
      },
      "pbrMetallicRoughness": {
        "metallicFactor": 0.0,
        "metallicRoughnessTexture": {
          "index": 3
        }
      }
    }
  ],
  "meshes": [
    {
      "name": "industrial_wall_sconce_industrial_wall_sconce_0",
      "primitives": [
        {
          "attributes": {
            "NORMAL": 1,
            "POSITION": 0,
            "TANGENT": 2,
            "TEXCOORD_0": 3,
            "TEXCOORD_1": 4,
            "TEXCOORD_2": 5
          },
          "indices": 6,
          "material": 0,
          "mode": 4
        }
      ]
    },
    {
      "name": "industrial_wall_sconce_industrial_wall_sconce_bulb_0",
      "primitives": [
        {
          "attributes": {
            "NORMAL": 8,
            "POSITION": 7,
            "TANGENT": 9,
            "TEXCOORD_0": 10,
            "TEXCOORD_1": 11
          },
          "indices": 12,
          "material": 1,
          "mode": 4
        }
      ]
    }
  ],
  "nodes": [
    {
      "children": [
        1
      ],
      "matrix": [
        1.0,
        0.0,
        0.0,
        0.0,
        0.0,
        2.220446049250313e-16,
        -1.0,
        0.0,
        0.0,
        1.0,
        2.220446049250313e-16,
        0.0,
        0.0,
        0.0,
        0.0,
        1.0
      ],
      "name": "Sketchfab_model"
    },
    {
      "children": [
        2
      ],
      "matrix": [
        0.009999999776482582,
        0.0,
        0.0,
        0.0,
        0.0,
        0.0,
        0.009999999776482582,
        0.0,
        0.0,
        -0.009999999776482582,
        0.0,
        0.0,
        0.0,
        0.0,
        0.0,
        1.0
      ],
      "name": "e76a979e2b5c470fad3e6a44bce8f28f.fbx"
    },
    {
      "children": [
        3
      ],
      "name": "RootNode"
    },
    {
      "children": [
        4,
        5
      ],
      "matrix": [
        100.0,
        0.0,
        0.0,
        0.0,
        0.0,
        -4.371139006309477e-06,
        -99.9999999999999,
        0.0,
        0.0,
        99.9999999999999,
        -4.371139006309477e-06,
        0.0,
        0.15050846338272095,
        15.139625549316406,
        0.8094342350959778,
        1.0
      ],
      "name": "industrial_wall_sconce"
    },
    {
      "mesh": 0,
      "name": "industrial_wall_sconce_industrial_wall_sconce_0"
    },
    {
      "mesh": 1,
      "name": "industrial_wall_sconce_industrial_wall_sconce_bulb_0"
    }
  ],
  "samplers": [
    {
      "magFilter": 9729,
      "minFilter": 9987,
      "wrapS": 10497,
      "wrapT": 10497
    }
  ],
  "scene": 0,
  "scenes": [
    {
      "name": "Sketchfab_Scene",
      "nodes": [
        0
      ]
    }
  ],
  "textures": [
    {
      "sampler": 0,
      "source": 0
    },
    {
      "sampler": 0,
      "source": 1
    },
    {
      "sampler": 0,
      "source": 2
    },
    {
      "sampler": 0,
      "source": 3
    },
    {
      "sampler": 0,
      "source": 4
    }
  ]
}
